<?xml version="1.0" encoding="utf-8"?>
<!-- Generator: Adobe Illustrator 21.1.0, SVG Export Plug-In . SVG Version: 6.00 Build 0)  -->
<svg version="1.1" id="图层_1" xmlns="http://www.w3.org/2000/svg" xmlns:xlink="http://www.w3.org/1999/xlink" x="0px" y="0px"
	 viewBox="0 0 750 1334" style="enable-background:new 0 0 750 1334;" xml:space="preserve">
<style type="text/css">
	.st0{fill-rule:evenodd;clip-rule:evenodd;}
	.st1{font-family:'PingFang-SC-Medium';}
	.st2{font-size:160.3046px;}
</style>
<g>
	<path class="st0" d="M727.1,514.2L565.2,339.9c-4.1-4.4-9.9-6.9-15.9-6.9H284.5c-36.8,0-66.7,29.7-66.7,66.3v73.2
		c13.7,3.9,22.4,12.4,25.2,15.5l0.8,0.9l0.7,0.9c5.7,7.3,11.2,14.5,16.7,21.6v-112c0-12.8,10.4-23.1,23.3-23.1H539v149.8
		c0,5.6,4.6,10.2,10.2,10.2h139.2l1.1,1.2v396.5c0,12.8-10.4,23.1-23.3,23.1H284.5c-12.8,0-23.3-10.4-23.3-23.1v-46.5
		c-7.4,3.3-15.9,5.4-25.5,5.4h-17.9v41.1c0,36.5,29.9,66.3,66.7,66.3h381.8c36.8,0,66.7-29.7,66.7-66.3v-405
		C732.9,523.4,730.8,518.2,727.1,514.2L727.1,514.2z M559.5,515.7V397.4l110,118.4H559.5L559.5,515.7z M243.6,863.1
		c0.7-0.2,1.3-0.3,1.9-0.5c1.9-0.5,3.6-1.2,5.2-2c0.4-0.2,0.8-0.3,1.1-0.5c7.8-4.2,12.1-10.9,13.6-15.6c0.5-1.5,0.6-2.9,0.7-4.6
		l-1.1-94.9h105.9c2.8,0,5.5-0.8,7.8-2.3c4.2-2.6,8.6-8.2,8.6-16.1c0-6.8-3.3-13.5-9.9-20c-7.6-7.8-91.3-115.7-150-191.8
		c-1.9-2.5-3.9-5.1-5.8-7.5c-1.2-1.3-7.6-7.8-17.7-8.1c-4.9-0.1-12.3,1.2-19.4,8.3c-0.4,0.4-0.8,0.8-1.2,1.3L22.9,711.2
		c-3.9,4.2-5.9,8.8-5.9,13.6c0,7,4.5,15.4,17.1,17.9c4.2,0.8,8.3,0.8,8.3,0.8H137v92.6c0,12.3,5.2,19,9.6,22.5
		c7.2,5.8,15.5,5.8,19.5,5.3h69.6C238.6,864,241.2,863.6,243.6,863.1L243.6,863.1z M165.9,835.2V729.1c0-8-6.5-14.4-14.5-14.4H56.9
		L203,530.3c27,35,115.4,149.5,144.9,185.8h-97.5c-3.9,0-7.6,1.6-10.3,4.3c-2.7,2.7-4.2,6.3-4.2,10.1v0.2l1.3,105
		c-0.5-0.2-1-0.5-1.5-0.5L165.9,835.2L165.9,835.2L165.9,835.2z"/>
</g>
<text transform="matrix(1 0 0 1 432.1862 705.9922)"><tspan x="0" y="0" class="st1 st2">热</tspan><tspan x="0" y="192.4" class="st1 st2">点</tspan></text>
</svg>
