<?xml version="1.0" standalone="no"?>
<!DOCTYPE svg PUBLIC "-//W3C//DTD SVG 1.1//EN" "http://www.w3.org/Graphics/SVG/1.1/DTD/svg11.dtd" >
<svg xmlns="http://www.w3.org/2000/svg">
<metadata>
Created by FontForge 20120731 at Tue Jul 11 21:49:22 2017
 By admin
</metadata>
<defs>
<font id="iconfont" horiz-adv-x="1024" >
  <font-face 
    font-family="iconfont"
    font-weight="500"
    font-stretch="normal"
    units-per-em="1024"
    panose-1="2 0 6 3 0 0 0 0 0 0"
    ascent="896"
    descent="-128"
    x-height="792"
    bbox="0 -212 1045 896"
    underline-thickness="0"
    underline-position="0"
    unicode-range="U+0078-E7E6"
  />
<missing-glyph 
 />
    <glyph glyph-name=".notdef" 
 />
    <glyph glyph-name=".notdef" 
 />
    <glyph glyph-name=".null" horiz-adv-x="0" 
 />
    <glyph glyph-name="nonmarkingreturn" horiz-adv-x="341" 
 />
    <glyph glyph-name="x" unicode="x" horiz-adv-x="1001" 
d="M281 543q-27 -1 -53 -1h-83q-18 0 -36.5 -6t-32.5 -18.5t-23 -32t-9 -45.5v-76h912v41q0 16 -0.5 30t-0.5 18q0 13 -5 29t-17 29.5t-31.5 22.5t-49.5 9h-133v-97h-438v97zM955 310v-52q0 -23 0.5 -52t0.5 -58t-10.5 -47.5t-26 -30t-33 -16t-31.5 -4.5q-14 -1 -29.5 -0.5
t-29.5 0.5h-32l-45 128h-439l-44 -128h-29h-34q-20 0 -45 1q-25 0 -41 9.5t-25.5 23t-13.5 29.5t-4 30v167h911zM163 247q-12 0 -21 -8.5t-9 -21.5t9 -21.5t21 -8.5q13 0 22 8.5t9 21.5t-9 21.5t-22 8.5zM316 123q-8 -26 -14 -48q-5 -19 -10.5 -37t-7.5 -25t-3 -15t1 -14.5
t9.5 -10.5t21.5 -4h37h67h81h80h64h36q23 0 34 12t2 38q-5 13 -9.5 30.5t-9.5 34.5q-5 19 -11 39h-368zM336 498v228q0 11 2.5 23t10 21.5t20.5 15.5t34 6h188q31 0 51.5 -14.5t20.5 -52.5v-227h-327z" />
    <glyph glyph-name="submit" unicode="&#xe688;" 
d="M893 685q0 1 0.5 3.5t0.5 3.5q0 21 -14.5 35t-34.5 14q-15 0 -29 -10l-1 1l-658 -339q-12 -4 -19.5 -14.5t-7.5 -23.5q0 -14 8 -24.5t21 -14.5l200 -68v1q6 -2 10 -2q13 0 22.5 9t9.5 23q0 19 -18 28h1l-153 52l523 269l-305 -343q-17 -13 -17 -34l1 -34v-146
q0 -13 9.5 -22.5t23 -9.5t22.5 9.5t9 22.5v129l227 -78q10 -5 19 -5q17 0 28.5 11.5t11.5 27.5v1l111 528h-1zM724 190l-211 73l297 333z" />
    <glyph glyph-name="full-sreen" unicode="&#xe601;" horiz-adv-x="1025" 
d="M622 496q17 -17 40.5 -17t40.5 17l207 204l-2 -164q0 -18 12 -31t29 -12h30q18 0 30 10t13 27l1 301q0 1 -1 1h-1l3 22q0 19 -10 29q-12 12 -30 12l-21 -1h-0.5h-0.5l-300 2q-17 0 -29.5 -13t-13.5 -30v-30q3 -20 16.5 -31.5t31.5 -11.5h160l-205 -203q-17 -17 -17 -40.5
t17 -40.5v0zM403 272q-16 17 -40 17t-41 -17l-206 -203l1 161q0 18 -12 30.5t-29 12.5h-31q-18 0 -30.5 -10.5t-12.5 -27.5l-1 -298l0.5 -0.5l0.5 -0.5l-2 -21q0 -20 10 -30q12 -12 29 -12l21 1h1h1l299 -2q17 1 30 13.5t13 29.5v30q-3 19 -16.5 30t-31.5 11h-159l206 205
q17 17 17 40.5t-17 40.5v0z" />
    <glyph glyph-name="new" unicode="&#xe610;" 
d="M974 110h-162v-172q0 -10 -7 -17.5t-18 -7.5h-34q-10 0 -17.5 7.5t-7.5 17.5v172h-161q-11 0 -18 7.5t-7 18.5v35q0 10 7 17.5t18 7.5h161v172q0 11 7.5 18.5t17.5 7.5h34q11 0 18 -7.5t7 -18.5v-172h162q10 0 17.5 -7.5t7.5 -17.5v-35q0 -11 -7.5 -18.5t-17.5 -7.5v0v0z
M313 833h498q83 0 141.5 -59.5t58.5 -144.5v-278q0 -11 -6 -18.5t-12 -8.5l-6 -2v0h-20q-10 0 -15.5 7.5t-6.5 14.5l-1 7v87h-864v-321q1 -5 4 -14t14.5 -31t25 -39.5t37.5 -31.5t52 -14h373q3 0 7.5 -1t11.5 -7t7 -15v-25q0 -11 -6 -17.5t-13 -7.5l-6 -1h-374
q-83 0 -141.5 60t-58.5 144v307v410zM80 768v-264h868v126q0 34 -12 61t-29.5 40.5t-35 22.5t-29.5 12l-12 2h-637h-113z" />
    <glyph glyph-name="edit" unicode="&#xe644;" 
d="M902 -5q0 -24 -17 -41t-41 -17h-663q-24 0 -41 17t-17 41v779q0 24 17 41t41 17h663q24 0 41 -17t17 -41v-779zM863 735q0 24 -17 41t-41 17h-585q-24 0 -41 -17t-17 -41v-701q0 -24 17 -41t41 -17h585q24 0 41 17t17 41v701zM766 658q0 8 -5 13t-12 5h-453q-7 0 -12 -5
t-5 -13v-3q0 -7 5 -12t12 -5h453q7 0 12 5t5 12v3zM766 522q0 7 -5 12t-12 5h-453q-7 0 -12 -5t-5 -12v-3q0 -7 5 -12t12 -5h453q7 0 12 5t5 12v3zM766 405q0 7 -5 12.5t-12 5.5h-453q-7 0 -12 -5.5t-5 -12.5v-3q0 -7 5 -12t12 -5h453q7 0 12 5t5 12v3zM433 289q0 7 -5 12
t-13 5h-119q-7 0 -12 -5t-5 -12v-3q0 -7 5 -12t12 -5h119q8 0 13 5t5 12v3zM746 311l-15 15q-10 10 -22.5 10.5t-21.5 -7.5l-175 -175l62 -62l175 175q8 9 7.5 21.5t-10.5 22.5zM493 134v-61h61h1z" />
    <glyph glyph-name="search" unicode="&#xe606;" 
d="M250 531q-5 -9 -16.5 -13.5t-15.5 0.5q-9 0 -14.5 10.5t-5.5 21.5q4 10 13.5 26t12.5 26v0v0l38 38v0v0q26 26 45 38q4 2 14 8t19.5 10.5t17.5 7.5q10 5 18.5 1t13.5 -14t1 -18.5t-13 -13.5q-29 -9 -45 -25q-13 -7 -32 -26v0q-26 -26 -32 -38v0q-2 -5 -7.5 -12.5
t-8.5 -14t-3 -12.5v0zM813 147l179 -179q14 -14 14 -31t-14 -27q-10 -14 -29 -14t-29 14l-179 180q-37 -37 -115 -71q-85 -32 -172.5 -32t-173.5 32v0v0q-73 33 -147 96v0q-70 71 -96 147v0q-32 96 -32 173q0 88 32 173q33 73 96 147q135 135 320 135q88 0 173 -32v0v0
q73 -33 147 -96v0q51 -52 96 -141v0q32 -86 32 -167q0 -87 -32 -172q-32 -96 -70 -135v0zM608 774q-60 26 -141 26q-157 0 -256 -109q-52 -44 -83 -115q-26 -90 -26 -141t26 -141v0q26 -60 77 -121v0v0q59 -59 121 -77v0q60 -26 141 -26q51 0 141 26q67 29 115 77v0v0
q59 59 77 121q26 60 26 141t-26 141v0q-29 67 -77 115v0q-44 53 -115 83v0v0z" />
    <glyph glyph-name="del" unicode="&#xe7e6;" 
d="M886 667h-747q-10 0 -17 7t-7 17t7 17t17 7h747q10 0 17 -7t7 -17t-7 -17t-17 -7v0zM645 763h-265q-10 0 -17 7t-7 17t7 17t17 7h265q10 0 17 -7t7 -17t-7 -17t-17 -7v0zM404 137v409q0 10 7 17t17 7t17 -7t7 -17v-409q0 -10 -7 -17.5t-17 -7.5t-17 7.5t-7 17.5v0z
M573 137v409q0 10 7 17t17 7t17 -7t7 -17v-409q0 -10 -7 -17.5t-17 -7.5t-17 7.5t-7 17.5v0zM235 594q10 0 17.5 -7t7.5 -17v-506q0 -20 14 -34t34 -14h409q20 0 34 14t14 34v506q0 10 7.5 17t17.5 7t17 -7t7 -17v-530q0 -30 -21.5 -51t-51.5 -21h-457q-30 0 -51.5 21
t-21.5 51v366v164q0 10 7 17t17 7v0zM235 594z" />
    <glyph glyph-name="geren" unicode="&#xe60d;" 
d="M956 -114v-33q0 -27 -17.5 -46t-41.5 -19h-769q-25 0 -42 19t-17 46v33v9.5v14.5v9q0 100 60.5 172.5t159 106.5t223.5 34t224 -34t159.5 -106.5t60.5 -172.5v-9v-14.5v-9.5zM512 300q-34 0 -63 10t-48 22.5t-38.5 37t-29 40t-25.5 43.5q-3 6 -5 8q-30 53 -30 115
q0 98 70 167t169 69t168.5 -69t69.5 -167q0 -62 -30 -116q-13 -23 -18.5 -32t-19.5 -30.5t-24 -31t-27 -25t-33.5 -23t-38.5 -13t-47 -5.5z" />
    <glyph glyph-name="monthly" unicode="&#xe677;" horiz-adv-x="1025" 
d="M242 165q40 -32 91 -32q41 0 65 20t24 54q0 75 -107 75h-33v42h31q95 0 95 70q0 65 -73 65q-41 0 -78 -28v47q39 23 91 23q50 0 81 -26.5t31 -68.5q0 -78 -80 -100v-1q43 -5 68 -30.5t25 -63.5q0 -54 -38.5 -86.5t-102.5 -32.5q-56 0 -90 21v52v0v0zM242 165zM535 289
q0 104 35 158t101 54q125 0 125 -203q0 -100 -35 -153t-99 -53q-61 0 -94 50t-33 147v0v0zM586 291q0 -158 80 -158q79 0 79 160q0 166 -77 166q-82 0 -82 -168v0v0zM586 291zM838 823q-14 0 -23.5 9.5t-9.5 23.5v7q0 14 -9.5 23.5t-23.5 9.5h-7q-14 0 -23.5 -9.5
t-9.5 -23.5v-7q0 -14 -10 -23.5t-23 -9.5h-373q-14 0 -23.5 9.5t-9.5 23.5v7q0 14 -10 23.5t-24 9.5h-6q-14 0 -24 -9.5t-10 -23.5v-7q0 -14 -9.5 -23.5t-23.5 -9.5h-153q-14 0 -23.5 -10t-9.5 -23v-885q0 -14 9.5 -23.5t23.5 -9.5h958q14 0 23.5 10t9.5 23v885
q0 13 -9.5 23t-23.5 10h-153v0v0zM963 -22q0 -47 -45 -49h-812q-25 0 -35.5 15.5t-10.5 33.5v739q0 18 15.5 30.5t30.5 12.5h80q13 0 23 -14.5t10 -28.5v-26q0 -14 10 -23.5t24 -9.5h6q14 0 24 9.5t10 23.5v26q0 14 10 27.5t23 13.5h373q13 0 23 -13.5t10 -27.5v-27
q0 -13 9.5 -23t23.5 -10h7q13 0 23 10t10 23v27q0 14 10 27t23 13h80q21 0 33 -11t12 -29v-739v0v0zM963 -22z" />
    <glyph glyph-name="pass" unicode="&#xe60a;" 
d="M1006 152l-227 -266q-12 -14 -30 -14q-13 0 -24 8l-153 118q-12 10 -14.5 26.5t7.5 29.5t26.5 15t29.5 -8l122 -95l203 237q11 13 27.5 14.5t28.5 -9.5t13.5 -27t-9.5 -29zM675 215h-455q-16 0 -27.5 11.5t-11.5 28t11.5 28t27.5 11.5h455q16 0 27.5 -11.5t11.5 -28
t-11.5 -28t-27.5 -11.5zM675 633h-455q-16 0 -27.5 12t-11.5 28t11.5 27.5t27.5 11.5h455q16 0 27.5 -11.5t11.5 -27.5t-11.5 -28t-27.5 -12zM675 424h-455q-16 0 -27.5 11.5t-11.5 28t11.5 28t27.5 11.5h455q16 0 27.5 -11.5t11.5 -28t-11.5 -28t-27.5 -11.5zM828 767
q0 23 -16 39t-39 16h-636q-23 0 -39 -16t-16 -39v-744q0 -23 16 -39t39 -16h342v-74h-342q-53 0 -91 38t-38 91v744q0 53 38 91t91 38h636q53 0 91 -38t38 -91v-481h-74v481z" />
    <glyph glyph-name="msg" unicode="&#xe696;" 
d="M982 677h-940h-9h-19h-14v-656h1024v656h-35h-7zM941 636l-395 -396q-14 -13 -34 -13t-34 13l-395 396h858zM41 619l266 -266l-266 -265v531zM74 62l262 263l113 -114q26 -26 63 -26t63 26l113 114l262 -263h-876zM983 88l-266 265l266 266v-531z" />
    <glyph glyph-name="cancel" unicode="&#xe602;" 
d="M798 896h-572q-94 0 -160 -66t-66 -160v-572q0 -94 66 -160t160 -66h572q94 0 160 66t66 160v572q0 94 -66 160t-160 66zM987 119q0 -87 -61.5 -148.5t-148.5 -61.5h-530q-87 0 -148.5 61.5t-61.5 148.5v530q0 87 61.5 148.5t148.5 61.5h530q87 0 148.5 -61.5
t61.5 -148.5v-530zM701 538l-35 35l-154 -155l-154 155l-35 -35l155 -154l-155 -154l35 -35l154 155l154 -155l35 35l-155 154z" />
    <glyph glyph-name="edit1" unicode="&#xe619;" 
d="M897 644l-89 65l44 58l88 -67zM580 224l-101 -36l3 102l295 380l90 -65zM989 725l-146 110l-14 -19l-396 -508v-8l-4 -147l-1 -36l182 65l399 528zM945 435v-500h-804q-51 0 -87 36t-36 88v612h579q10 0 17 -7.5t7 -18t-7 -17.5t-17 -7h-530v-562q0 -31 21.5 -53
t52.5 -22h754v451q0 10 7.5 17.5t17.5 7.5t17.5 -7.5t7.5 -17.5z" />
    <glyph glyph-name="eye-open" unicode="&#xe723;" 
d="M511 669q72 0 140 -23.5t114.5 -55.5t89 -75t64 -72t38.5 -57q-17 -28 -38 -56.5t-63.5 -71.5t-89.5 -74.5t-115 -55t-140 -23.5q-81 0 -153 23.5t-118.5 55t-86 74t-58 71t-31.5 55.5q17 28 38 56.5t64.5 72.5t90.5 76t115 56t139 24zM511.5 498q49.5 0 81.5 -31.5
t32 -79.5t-32 -79.5t-81.5 -31.5t-82 31.5t-32.5 79.5t32.5 79.5t82 31.5zM511 547q-71 0 -117.5 -46t-46.5 -114t46.5 -114t117.5 -46t117.5 46t46.5 114t-46.5 114t-117.5 46v0z" />
    <glyph glyph-name="save" unicode="&#xe61d;" horiz-adv-x="1053" 
d="M875 891h-684q-70 0 -120 -50t-50 -120v-674q0 -70 50 -120t120 -50h684q70 0 120 50t50 120v674q0 70 -50 120t-120 50v0v0zM271 825h523v-376h-523v376zM979 47q0 -43 -30.5 -73.5t-73.5 -30.5h-684q-43 0 -73.5 30.5t-30.5 73.5v674q0 43 30.5 73.5t73.5 30.5v0h14
v-443h656v443h14q43 0 73.5 -30.5t30.5 -73.5v-674zM631 727h66v-221h-66v221z" />
    <glyph glyph-name="project" unicode="&#xe617;" horiz-adv-x="1099" 
d="M738 430h-302q-3 0 -3 1v35q0 3 5 3h355q6 0 6 -3v-33q0 -3 -6 -3h-36h-19zM438 254q-5 0 -5 5v32q0 3 5 3h355q5 0 5 -5v-30q0 -3 -0.5 -4t-3.5 -1h-356zM936 647q0 8 -7 8h-18h-44h-64t-71 -0.5t-72 -0.5h-59.5t-41.5 0.5t-11 0.5q-5 -1 -9 1t-5 3l-1 2q-32 46 -42 61
l-11 6h-339q-2 0 -4 -2t-3 -4l-1 -2v-663q0 -3 1.5 -5.5t3.5 -3.5h1h793l4 3v596zM897 94q0 -7 -7 -7h-706q-11 0 -11 18v577q0 7 4 7h278q6 0 9 -4q1 -1 1 -2q32 -43 46 -60q5 -7 16 -7l363 -1q7 0 7 -9v-512zM307 471h44v-44h-44v44zM307 296h44v-44h-44v44z" />
    <glyph glyph-name="department" unicode="&#xe69b;" 
d="M746 272q58 32 92.5 89t34.5 126q0 100 -71.5 171.5t-172.5 71.5q-100 0 -171.5 -71.5t-71.5 -171.5q0 -68 34.5 -125.5t92.5 -89.5q-122 -37 -200 -141t-78 -235q0 -10 7 -17t16.5 -7t16.5 7t7 17q0 94 46.5 174t126.5 126.5t174 46.5q95 0 175 -46.5t126.5 -126.5
t46.5 -174q0 -10 7 -17t16.5 -7t16.5 7t7 17q-1 131 -78.5 235t-199.5 141zM433 487q0 82 57.5 139.5t139 57.5t139 -57.5t57.5 -139t-57.5 -139t-139 -57.5t-139 57.5t-57.5 138.5zM349 256q9 0 15 6.5t6 15t-6 14.5t-15 6v0v0q-72 0 -123 51t-51 123.5t51 123.5t123 51v0
q9 0 15 6t6 14.5t-6 14.5t-15 6v0q-89 0 -152.5 -63t-63.5 -153q0 -60 31 -111t82 -78q-108 -34 -177 -126t-69 -208q0 -9 6 -15t15 -6t15 6t6 15q0 127 90 217t217 90v0z" />
    <glyph glyph-name="eye-close" unicode="&#xe628;" 
d="M992 534q-21 32 -54 32l-10 -9q-16 -66 -77 -120t-151 -84t-188 -30t-188 30t-151 84t-77 120l-6 13q-32 0 -58 -39q6 -22 32 -61v-41q0 -5 4 -9t9 -4h3q7 0 11.5 4t4.5 9v0q26 -31 64 -58v-3v-67q0 -5 4 -9t9 -4h3q7 0 11.5 4t4.5 9v48q74 -43 128 -58v-54q0 -5 4 -9
t9 -4h3q5 0 9 4t4 9v45q77 -20 160 -20v-57q0 -5 4 -9t9 -4h3q5 0 9 4t4 9v57q64 5 128 20v-45q0 -5 4 -9t8 -4h4q4 0 8 4t4 9v54q69 23 128 58v-48q0 -5 4 -9t9 -4h3q5 0 9 4t4 9v67v3q45 39 64 58v0q0 -5 4 -9t9 -4h3q5 0 9 4t4 9v41q36 28 48 64z" />
    <glyph glyph-name="comiis_dunpai" unicode="&#xe6b2;" 
d="M898 291q-6 -43 -30 -86.5t-58.5 -79t-75 -68t-79.5 -57t-71 -42t-52 -27l-20 -9.5q-8 3 -20.5 9.5t-50.5 27t-73 42.5t-78 56t-75.5 68.5t-57.5 78.5t-31 87q-13 93 -13.5 215.5t3 170.5t5.5 76v0q15 -3 38.5 -6t78 -4t88.5 10q54 16 100.5 39.5t65.5 38.5l20 15
q7 -6 21 -16.5t62.5 -35.5t102.5 -41q34 -11 85 -11t85 5l35 6q2 -29 5.5 -76.5t3 -170t-13.5 -215.5z" />
    <glyph glyph-name="after-sale" unicode="&#xe612;" horiz-adv-x="1025" 
d="M823 196h2q9 0 15.5 -6t6.5 -15v-219q0 -9 -6.5 -15.5t-15.5 -6.5h-2q-9 0 -15.5 6.5t-6.5 15.5v219q0 9 6.5 15t15.5 6zM955 66v-2q0 -9 -6.5 -15.5t-15.5 -6.5h-219q-9 0 -15.5 6.5t-6.5 15.5v2q0 9 6.5 15.5t15.5 6.5h219q9 0 15.5 -6.5t6.5 -15.5zM468.5 648
q27.5 0 50 -4t48.5 -18.5t43.5 -39.5t29.5 -69.5t12 -105.5q0 -13 9.5 -22.5t22.5 -9.5t22.5 9.5t9.5 22.5q0 71 -15.5 125.5t-39 87t-57 52.5t-66 27t-69.5 7t-69 -7t-65.5 -27t-57.5 -52.5t-39 -87t-15 -125.5q0 -79 33 -149.5t90 -113.5v-5q-125 -18 -199 -65.5
t-74 -110.5q0 -13 9.5 -22.5t22.5 -9.5t22 9.5t9 22.5q0 36 68 71t177 47q12 1 20 10t8 21v48q0 17 -14 27q-49 32 -79 92.5t-30 127.5q0 61 12 106t29 69.5t43.5 39t48.5 18.5t49.5 4zM859 494l-40 10q-10 137 -111 231.5t-239 94.5q-93 0 -172.5 -45t-127 -122t-51.5 -169
l-24 -20q-11 -9 -11 -24v-125q0 -13 9.5 -22t22.5 -9t22.5 9t9.5 22v110l23 20q11 9 11 24q0 119 84.5 203.5t203.5 84.5t203.5 -84.5t84.5 -203.5q0 -11 7 -19.5t17 -11.5l40 -10v-113q0 -13 9 -22.5t22.5 -9.5t22.5 9.5t9 22.5v138q-1 11 -8 19.5t-17 11.5zM741 365
q-2 -6 -9.5 -13t-25.5 -15.5t-43 -15.5t-66 -11.5t-91 -4.5q-13 0 -22.5 -9.5t-9.5 -22.5t9.5 -22.5t22.5 -9.5q76 0 133.5 10.5t87 24t48 31t23 28t5.5 19.5l-31 4zM592 144v21q0 13 -9 22.5t-22 9.5t-22.5 -9.5t-9.5 -22.5v-49q0 -12 8 -21t20 -10q31 -4 47 -7v64
q-6 0 -12 2z" />
    <glyph glyph-name="clear" unicode="&#xe603;" 
d="M590 384l129 129q16 16 16 39t-16 39t-39 16t-39 -16l-129 -129l-129 129q-16 16 -39 16t-39 -16t-16 -39t16 -39l129 -129l-129 -129q-16 -16 -16 -39t16 -39t39 -16t39 16l129 129l129 -129q16 -16 39 -16t39 16t16 39t-16 39zM512 -128q-139 0 -257 68.5t-186.5 186.5
t-68.5 257t68.5 257t186.5 186.5t257 68.5t257 -68.5t186.5 -186.5t68.5 -257t-68.5 -257t-186.5 -186.5t-257 -68.5z" />
    <glyph glyph-name="reject" unicode="&#xe60f;" 
d="M471 -40h-244q-4 0 -9 1h-4h4v0h-3q-13 2 -24 8l-14 7q11 -6 20 -10q-1 1 -4 2q-17 9 -30 24q6 -5 9.5 -8.5t4.5 -4t1.5 -1.5t1 -1.5t2.5 -1.5q-20 15 -30 38l14 -23v0l1 -1q-3 4 -6 9q-9 16 -12 36q8 -27 9 -29q-1 1 -2 4q-3 8 -5 19q1 -6 1 0l-1 3v5v627q0 6 1 11v-1
q1 9 5 19q0 1 1 3v0l-2 -4q10 22 28 37q-12 -12 -18 -19q16 19 37 28q-8 -5 -13 -8t-6 -3.5l-2 -1t-3 -2.5q18 14 41 18l-21 -6v0l-1 -1q3 1 8 3q4 1 9 2h3h-1h-1h-1h-1q6 1 12 1h2h558q4 0 10 -1h-2q15 -2 28 -9l-10 5q8 -4 17 -10q1 0 3 -2h-1q3 -2 7 -6l6 -6q0 -1 2 -2
h-1q-1 1 -2 3q1 -2 3 -5q13 -18 16 -40l-6 22v-1q1 -4 2 -10q1 -1 1 -4v1q1 -5 1 -11v-1v-379q0 -11 7.5 -19t18.5 -8t19 8t8 19v380q0 36 -18 66q-23 39 -68 56q-19 7 -58 7h-525q-34 0 -50 -4q-42 -11 -69 -46.5t-27 -78.5v-623q0 -61 42 -99q34 -32 82 -34h18h231
q11 0 18.5 8t7.5 19t-7.5 18.5t-18.5 7.5v0v0zM332 535h347q10 0 18 8t8 19t-8 19t-18 8h-347q-10 0 -18 -8t-8 -19t8 -19t18 -8zM332 326h347q10 0 18 7.5t8 18.5t-8 19t-18 8h-347q-10 0 -18 -8t-8 -19t8 -18.5t18 -7.5zM332 116h139q11 0 18.5 8t7.5 19t-7.5 19t-18.5 8
h-139q-10 0 -18 -8t-8 -19t8 -19t18 -8zM891 123h-7.5h-8.5h-158l67 67q7 8 7 19t-7.5 18.5t-18.5 7.5q-10 0 -18 -7v-1l-105 -101q-1 -2 -4 -5l-4 -4q-8 -8 -8 -19.5t8 -19.5l114 -116q8 -8 19.5 -8t19.5 8t8 19.5t-8 19.5l-69 69h141v-137q0 -11 8 -18.5t19 -7.5t19 7.5
t8 17.5v168q0 23 -22 23z" />
    <glyph glyph-name="notice" unicode="&#xe635;" 
d="M526 -38q-21 0 -36 13q-71 60 -249 218h-113q-31 0 -46.5 19t-15.5 40v263q0 24 17 40q15 15 37 15q23 -1 122 0q235 211 252 226q25 20 63 2q19 -9 32 -25t13 -37v-697q0 -22 -12.5 -41t-33.5 -29q-15 -7 -30 -7zM119 538q-8 0 -13 -5q-8 -8 -8 -18v-263q0 -3 1 -7.5
t8.5 -12t20.5 -7.5h126l4 -4q160 -142 253 -222q12 -10 31 -1q28 13 28 41v697q0 21 -26 33q-20 9 -29 2q-12 -10 -256 -229l-4 -4h-6h-12.5h-27h-33h-33h-24.5v0zM678 185q-8 0 -12 6q-11 12 1 23q88 75 89 162q0 29 -9.5 58t-21 49t-27 39t-21.5 25.5t-10 9.5
q-12 11 -1.5 23t22.5 1q26 -24 50 -58q50 -73 50 -147q-1 -102 -100 -187q-4 -4 -10 -4zM786.5 40q-6.5 0 -11.5 5q-12 11 0 22q155 154 151 324q-3 115 -77 225q-16 25 -35 47.5t-28 31.5t-11 10q-12 11 -1 23t23 1q38 -33 78 -94q35 -52 55 -106q26 -69 28 -137
q4 -183 -161 -347q-4 -5 -10.5 -5z" />
    <glyph glyph-name="date" unicode="&#xe605;" 
d="M851 -42h-683q-40 0 -68.5 28.5t-28.5 68.5v585q0 41 28.5 69.5t68.5 28.5h146v49q0 10 7.5 17t17.5 7t17 -7t7 -17v-49h293v49q0 10 7 17t17 7t17 -7t7 -17v-49h147q40 0 68.5 -28.5t28.5 -69.5v-585q0 -40 -28.5 -68.5t-68.5 -28.5zM899 640q0 21 -14 35t-34 14h-147
v-49q0 -10 -7 -17t-17 -7t-17 7t-7 17v49h-293v-49q0 -10 -7 -17t-17 -7t-17.5 7t-7.5 17v49h-146q-20 0 -34.5 -14t-14.5 -35v-97h780v97zM899 494h-780v-439q0 -20 14.5 -34t34.5 -14h683q20 0 34 14t14 34v439zM704 153h-48q-11 0 -18 7t-7 17t7 17.5t18 7.5h48
q10 0 17.5 -7.5t7.5 -17.5t-7.5 -17t-17.5 -7zM704 299h-48q-11 0 -18 7t-7 17.5t7 17.5t18 7h48q10 0 17.5 -7t7.5 -17.5t-7.5 -17.5t-17.5 -7zM534 153h-49q-10 0 -17 7t-7 17t7 17.5t17 7.5h49q10 0 17 -7.5t7 -17.5t-7 -17t-17 -7zM534 299h-49q-10 0 -17 7t-7 17.5
t7 17.5t17 7h49q10 0 17 -7t7 -17.5t-7 -17.5t-17 -7zM339 153h-49q-10 0 -17 7t-7 17t7 17.5t17 7.5h49q10 0 17 -7.5t7 -17.5t-7 -17t-17 -7zM339 299h-49q-10 0 -17 7t-7 17.5t7 17.5t17 7h49q10 0 17 -7t7 -17.5t-7 -17.5t-17 -7z" />
    <glyph glyph-name="function" unicode="&#xe651;" 
d="M455 791q18 0 30.5 -12.5t12.5 -29.5v-299q0 -18 -12.5 -30.5t-30.5 -12.5h-299q-18 0 -30 12.5t-12 30.5v299q0 17 12 29.5t30 12.5h299zM455 834h-299q-35 0 -60 -25t-25 -60v-299q0 -36 25 -61t60 -25h299q35 0 60.5 25t25.5 61v299q0 35 -25.5 60t-60.5 25zM883 364
q17 0 29.5 -12.5t12.5 -29.5v-299q0 -18 -12.5 -30.5t-29.5 -12.5h-299q-18 0 -30.5 12.5t-12.5 30.5v299q0 17 12.5 29.5t30.5 12.5h299zM883 407h-299q-36 0 -61 -25.5t-25 -60.5v-299q0 -35 25 -60t61 -25h299q35 0 60 25t25 60v299q0 35 -25 60.5t-60 25.5zM370 279
q17 0 29.5 -12.5t12.5 -30.5v-213q0 -18 -12.5 -30.5t-29.5 -12.5h-214q-18 0 -30 12.5t-12 30.5v213q0 17 12 29.5t30 12.5h214v1zM370 321h-214q-35 0 -60 -25t-25 -60v-214q0 -35 25 -60t60 -25h214q35 0 60 25t25 60v214q0 35 -25 60t-60 25zM776 788q13 0 23 -9
l114 -114q9 -10 9 -23.5t-9 -22.5l-114 -114q-9 -9 -23 -9q-13 0 -23 9l-115 114q-9 10 -9 23t9 23l115 113q9 10 23 10zM776 830q-32 0 -54 -22l-114 -114q-22 -22 -22 -53t22 -53l114 -114q22 -22 53.5 -22t53.5 22l114 114q22 22 22 53t-22 53l-114 114q-9 10 -24.5 16
t-28.5 6v0z" />
    <glyph glyph-name="person" unicode="&#xe73c;" 
d="M653 326q68 40 107.5 105t39.5 145q0 120 -84 204t-204 84t-204 -84t-84 -204q0 -80 39.5 -145t107.5 -105q-121 -43 -198 -150t-77 -240q0 -14 9 -23t23 -9t23 9t9 23q0 94 46 174t125.5 127.5t174.5 50.5h12q95 -3 174.5 -50.5t125.5 -127.5t46 -174q0 -14 9 -23t23 -9
t23 9t9 23q0 133 -77 240t-198 150zM288 576q0 91 66.5 157.5t157.5 66.5t157.5 -66.5t66.5 -157.5t-63 -155t-155 -69h-6h-6q-92 5 -155 69t-63 155z" />
    <glyph glyph-name="up" unicode="&#xe600;" 
d="M995 594l-222 239q-9 9 -22 9h-363q-38 0 -65 -26.5t-27 -64.5v-100q21 -6 35 -21l1 -2l1 -1q4 -6 12.5 -16.5t10.5 -12.5v153q0 13 9.5 22.5t22.5 9.5h349v-206q0 -5 4 -9.5t10 -4.5h191l2 -1v-544q0 -14 -9.5 -23t-22.5 -9h-524q-13 0 -22.5 9.5t-9.5 22.5v63
q-17 -7 -35 -7h-25v-56q0 -38 27 -64.5t65 -26.5h524q38 0 64.5 26.5t26.5 64.5v555q0 12 -8 21zM765 592v162l151 -163zM332 115h1t1 1q4 1 7 2q1 0 1.5 0.5l0.5 0.5q14 8 19 21q0 3 1 7l-2 130h145q6 0 11 3q12 7 12 22q0 14 -14 28q-13 14 -206 263q-4 6 -7 10
q-10 11 -25 11q-15 1 -26 -11l-2 -2l-220 -278q-8 -8 -8 -18q0 -20 23 -25l12 -1h129v-127q0 -20 14 -31q11 -9 26 -7h96q5 0 11 1v0zM225 153v146q0 8 -6 14t-14 6h-129l200 253q156 -203 199 -255h-134q-8 0 -14 -6t-6 -14v0l2 -144h-2h-96v0z" />
  </font>
</defs>
</svg>
